<svg width="17" height="10" viewBox="0 0 17 10" fill="none" xmlns="http://www.w3.org/2000/svg">
<path d="M16.0227 5.87184L10.5898 8.26413V6.70142L14.3095 5.20817L14.2593 5.2892V5.09627L14.3095 5.1773L10.5898 3.68405V2.12134L16.0227 4.51363V5.87184Z" fill="url(#paint0_linear_1293_53)"/>
<path d="M10.5643 0.0800781L8.01765 9.54122H6.60156L9.1482 0.0800781H10.5643Z" fill="url(#paint1_linear_1293_53)"/>
<path d="M0.0227051 8.35297V0.450684H3.1404C3.73719 0.450684 4.24652 0.557437 4.66839 0.770942C5.09283 0.981876 5.41566 1.28156 5.63688 1.66998C5.86067 2.05584 5.97257 2.50986 5.97257 3.03205C5.97257 3.55681 5.85939 4.00826 5.63302 4.38639C5.40665 4.76196 5.07868 5.05006 4.64909 5.25071C4.22208 5.45135 3.70504 5.55167 3.09796 5.55167H1.01049V4.2089H2.82786C3.14683 4.2089 3.41179 4.16517 3.62272 4.07771C3.83365 3.99025 3.99057 3.85906 4.09346 3.68414C4.19893 3.50922 4.25166 3.29185 4.25166 3.03205C4.25166 2.76967 4.19893 2.54844 4.09346 2.36838C3.99057 2.18831 3.83237 2.05198 3.61886 1.95937C3.40793 1.8642 3.14169 1.81661 2.82015 1.81661H1.69345V8.35297H0.0227051ZM4.29025 4.75681L6.25424 8.35297H4.40986L2.48831 4.75681H4.29025Z" fill="url(#paint2_linear_1293_53)"/>
<defs>
<linearGradient id="paint0_linear_1293_53" x1="-0.664162" y1="3.30865" x2="18.3809" y2="3.30865" gradientUnits="userSpaceOnUse">
<stop stop-color="#FF530A"/>
<stop offset="1" stop-opacity="0.5"/>
</linearGradient>
<linearGradient id="paint1_linear_1293_53" x1="-0.664065" y1="3.30856" x2="18.381" y2="3.30856" gradientUnits="userSpaceOnUse">
<stop stop-color="#FF530A"/>
<stop offset="1" stop-opacity="0.5"/>
</linearGradient>
<linearGradient id="paint2_linear_1293_53" x1="-0.664115" y1="3.30875" x2="18.3809" y2="3.30875" gradientUnits="userSpaceOnUse">
<stop stop-color="#FF530A"/>
<stop offset="1" stop-opacity="0.5"/>
</linearGradient>
</defs>
</svg>
